<?xml version="1.0" encoding="UTF-8"?>
<svg id="Layer_1" data-name="Layer 1" xmlns="http://www.w3.org/2000/svg" viewBox="0 0 565.14 341.82">
  <defs>
    <style>
      .cls-1 {
        fill: #231f20;
      }
    </style>
  </defs>
  <g>
    <path class="cls-1" d="M330.43,3.93c0,1.75-.29,2.62-.87,2.62-11.36,0-19.74,1.97-25.13,5.9-5.4,3.93-8.96,11.73-10.71,23.38l-30.16,203.24c-.87,5.24-1.31,9.62-1.31,13.11,0,6.71,1.82,11.22,5.46,13.55,3.64,2.34,10.56,3.5,20.76,3.5,.87,0,1.31,.87,1.31,2.62s-.44,2.62-1.31,2.62c-7.58,0-13.55-.14-17.92-.44l-27.54-.44-26.66,.44c-4.66,.29-11.08,.44-19.23,.44-.87,0-1.31-.87-1.31-2.62s.44-2.62,1.31-2.62c9.32,0,16.17-.73,20.54-2.19,4.37-1.46,7.65-4.3,9.83-8.52,2.19-4.22,3.86-10.71,5.03-19.45l31.03-207.61-124.13,239.96c-.59,1.17-1.61,1.75-3.06,1.75-1.75,0-2.92-.72-3.5-2.19L83.92,37.59v-.44L50.26,223.78c-1.17,6.12-1.75,12.24-1.75,18.36,0,18.07,7.72,27.1,23.16,27.1,.87,0,1.31,.87,1.31,2.62s-.44,2.62-1.31,2.62c-6.12,0-10.78-.14-13.99-.44l-21.42-.44-19.23,.44c-3.5,.29-8.74,.44-15.73,.44-.87,0-1.31-.87-1.31-2.62s.44-2.62,1.31-2.62c10.2,0,18.5-3.72,24.91-11.15,6.41-7.43,11.07-18.72,13.99-33.87L77.8,21.42c-6.12-9.9-15.74-14.86-28.85-14.86-.87,0-1.31-.87-1.31-2.62s.44-2.62,1.31-2.62c4.66,0,8.45,.15,11.36,.44l13.99,.44c6.12,0,11.21-.14,15.3-.44,4.08-.29,7.28-.44,9.62-.44,3.2,0,5.68,1.46,7.43,4.37,1.75,2.92,3.64,9.04,5.68,18.36l42.83,199.75L264,12.24c1.75-3.2,3.93-5.83,6.56-7.87,2.62-2.04,5.39-3.06,8.3-3.06,2.04,0,4.95,.15,8.74,.44,3.78,.29,8.15,.44,13.11,.44l17.05-.44c2.62-.29,6.56-.44,11.8-.44,.58,0,.87,.87,.87,2.62Z"/>
    <path class="cls-1" d="M496.3,140.96c11.21,11.22,16.83,25.28,16.83,42.18,0,4.08-.44,8.6-1.31,13.55-2.92,14.57-9.4,27.91-19.45,39.99-10.05,12.09-22.44,21.71-37.15,28.85-14.72,7.14-30.38,10.71-46.99,10.71-8.16,0-17.34-.44-27.53-1.31-3.79-.29-8.24-.58-13.33-.88-5.1-.29-10.56-.44-16.39-.44l-27.97,.44c-4.66,.29-11.22,.44-19.67,.44-.87,0-1.24-.87-1.09-2.62,.14-1.75,.5-2.62,1.09-2.62,13.11,0,22.22-2.04,27.32-6.12,5.1-4.08,8.81-12.38,11.15-24.91l35.84-202.37c.88-5.24,1.31-9.46,1.31-12.67,0-6.7-1.97-11.15-5.9-13.33-3.93-2.19-11.3-3.28-22.07-3.28-.88,0-1.24-.87-1.09-2.62,.14-1.75,.5-2.62,1.09-2.62l20.54,.44c11.07,.59,19.81,.87,26.22,.87,4.95,0,9.54-.14,13.77-.44,4.22-.29,7.93-.58,11.15-.87,8.45-.87,16.17-1.31,23.16-1.31,22.14,0,38.9,4.15,50.26,12.46,11.36,8.3,17.05,19.74,17.05,34.31,0,4.08-.44,8.3-1.31,12.68-3.21,13.99-10.05,26.22-20.54,36.72-10.49,10.49-24.33,18.79-41.52,24.91,19.81,2.04,35.33,8.67,46.55,19.89Zm-17.7,43.93c0-16.9-4.96-30.01-14.86-39.34-9.91-9.32-24.77-14.13-44.58-14.42-7.29-.29-16.47,0-27.54,.87l-19.23,107.96c-.87,3.79-1.31,7.29-1.31,10.49,0,6.41,2.25,10.93,6.77,13.55,4.51,2.62,12.74,3.93,24.69,3.93,21.27,0,38.03-5.75,50.26-17.26,12.24-11.51,20.25-27.46,24.04-47.86,1.16-5.83,1.75-11.8,1.75-17.92Zm-84.79-64.25l16.61,.44c19.52,0,35.25-5.75,47.2-17.26,11.94-11.51,19.67-26.44,23.17-44.8,1.16-4.66,1.75-9.62,1.75-14.86,0-11.65-3.71-20.76-11.15-27.32-7.43-6.56-18.73-9.83-33.87-9.83-9.33,0-16.03,2.04-20.11,6.12-4.08,4.08-7.14,12.68-9.18,25.79l-14.42,81.73Z"/>
    <path class="cls-1" d="M529.95,273.18c-3.65-3.78-5.46-8.88-5.46-15.3,0-5.83,1.82-10.49,5.46-13.99,3.64-3.5,8.67-5.25,15.08-5.25s11.36,1.68,14.86,5.03c3.5,3.35,5.24,8.09,5.24,14.21,0,6.71-1.75,11.88-5.24,15.52s-8.46,5.46-14.86,5.46-11.44-1.9-15.08-5.68Z"/>
  </g>
  <g>
    <path class="cls-1" d="M44,305.16c1.57,2.06,2.36,4.77,2.36,8.14v15.73c0,.48-.16,.88-.47,1.2s-.71,.47-1.2,.47-.88-.16-1.2-.47c-.31-.31-.47-.71-.47-1.2v-15.56c0-2.45-.58-4.44-1.75-5.98-1.17-1.54-2.97-2.31-5.42-2.31-1.56,0-3.03,.37-4.42,1.11-1.39,.74-2.51,1.75-3.36,3.03-.85,1.28-1.28,2.66-1.28,4.14v15.56c0,.48-.16,.88-.47,1.2-.31,.32-.71,.47-1.2,.47s-.88-.16-1.2-.47c-.32-.31-.47-.71-.47-1.2v-15.73c0-2.41-.56-4.36-1.67-5.86s-2.85-2.25-5.23-2.25c-1.52,0-2.96,.37-4.31,1.11-1.35,.74-2.45,1.73-3.28,2.97s-1.25,2.58-1.25,4.03v15.73c0,.48-.16,.88-.47,1.2-.31,.32-.71,.47-1.2,.47s-.88-.16-1.2-.47c-.32-.31-.47-.71-.47-1.2v-24.9c0-.48,.16-.88,.47-1.2s.71-.47,1.2-.47,.88,.16,1.2,.47c.31,.32,.47,.71,.47,1.2v3.22c1-1.52,2.35-2.78,4.06-3.78,1.7-1,3.5-1.5,5.39-1.5,2.15,0,4,.52,5.56,1.56,1.56,1.04,2.67,2.56,3.34,4.56,.78-1.63,2.2-3.06,4.28-4.28,2.08-1.22,4.17-1.83,6.28-1.83,3.34,0,5.79,1.03,7.37,3.09Z"/>
    <path class="cls-1" d="M97.97,302.8c.31,.33,.47,.74,.47,1.22v25.02c0,.48-.16,.88-.47,1.2-.31,.32-.71,.47-1.2,.47s-.88-.16-1.2-.47c-.32-.31-.47-.71-.47-1.2v-3.72c-.93,1.67-2.32,3.08-4.17,4.22-1.85,1.15-3.87,1.72-6.06,1.72-2.48,0-4.72-.65-6.7-1.95-1.98-1.3-3.54-3.08-4.67-5.34-1.13-2.26-1.7-4.8-1.7-7.61s.57-5.35,1.72-7.59c1.15-2.24,2.71-3.99,4.7-5.25,1.98-1.26,4.18-1.89,6.59-1.89,2.22,0,4.26,.54,6.11,1.61,1.85,1.08,3.24,2.48,4.17,4.22v-3.45c0-.48,.16-.89,.47-1.22,.31-.33,.71-.5,1.2-.5s.88,.17,1.2,.5Zm-7.56,23.82c1.54-1.02,2.74-2.43,3.61-4.22,.87-1.8,1.31-3.81,1.31-6.03s-.44-4.11-1.31-5.89c-.87-1.78-2.08-3.18-3.61-4.2-1.54-1.02-3.27-1.53-5.2-1.53s-3.66,.5-5.2,1.5c-1.54,1-2.74,2.38-3.61,4.14-.87,1.76-1.31,3.75-1.31,5.98s.43,4.23,1.28,6.03c.85,1.8,2.05,3.21,3.59,4.22,1.54,1.02,3.29,1.53,5.25,1.53s3.66-.51,5.2-1.53Z"/>
    <path class="cls-1" d="M150.06,290.04c.31,.31,.47,.71,.47,1.2v37.8c0,.48-.16,.88-.47,1.2-.31,.32-.71,.47-1.2,.47s-.88-.16-1.2-.47c-.32-.31-.47-.71-.47-1.2v-3.89c-.93,1.7-2.31,3.15-4.14,4.34-1.83,1.19-3.86,1.78-6.09,1.78-2.45,0-4.66-.64-6.64-1.92-1.98-1.28-3.55-3.05-4.7-5.31-1.15-2.26-1.72-4.8-1.72-7.62s.57-5.3,1.72-7.56c1.15-2.26,2.71-4.03,4.7-5.31,1.98-1.28,4.18-1.92,6.59-1.92,2.19,0,4.21,.55,6.06,1.64,1.85,1.09,3.26,2.51,4.22,4.25v-16.29c0-.48,.16-.88,.47-1.2,.31-.32,.71-.47,1.2-.47s.88,.16,1.2,.47Zm-7.56,36.61c1.54-1,2.74-2.4,3.61-4.2,.87-1.8,1.31-3.81,1.31-6.03s-.44-4.17-1.31-5.95c-.87-1.78-2.08-3.18-3.61-4.2-1.54-1.02-3.27-1.53-5.2-1.53s-3.66,.51-5.2,1.53c-1.54,1.02-2.74,2.42-3.61,4.2-.87,1.78-1.31,3.76-1.31,5.95s.43,4.22,1.31,6c.87,1.78,2.08,3.18,3.61,4.2,1.54,1.02,3.27,1.53,5.2,1.53s3.66-.5,5.2-1.5Z"/>
    <path class="cls-1" d="M201.4,316c-.33,.32-.72,.47-1.17,.47h-21.01c0,2.22,.45,4.22,1.36,5.98s2.2,3.15,3.89,4.17c1.69,1.02,3.68,1.53,5.98,1.53,1.78,0,3.37-.37,4.78-1.11,1.41-.74,2.54-1.69,3.39-2.83,.41-.33,.8-.5,1.17-.5s.7,.15,1,.44c.3,.3,.45,.63,.45,1,0,.41-.19,.8-.56,1.17-1.19,1.44-2.68,2.63-4.48,3.56-1.8,.93-3.7,1.39-5.7,1.39-2.85,0-5.37-.61-7.56-1.83-2.19-1.22-3.89-2.94-5.11-5.14-1.22-2.2-1.83-4.75-1.83-7.64,0-3.04,.6-5.7,1.81-7.98,1.2-2.28,2.81-4.02,4.81-5.23,2-1.2,4.13-1.81,6.39-1.81s4.31,.52,6.25,1.56c1.95,1.04,3.53,2.56,4.75,4.56,1.22,2,1.85,4.37,1.89,7.12,0,.44-.17,.82-.5,1.14Zm-18.37-8.92c-1.83,1.48-3.01,3.61-3.53,6.39h18.96v-.44c-.19-1.67-.74-3.12-1.67-4.36s-2.08-2.19-3.47-2.84c-1.39-.65-2.83-.97-4.31-.97-2.15,0-4.14,.74-5.98,2.22Z"/>
    <path class="cls-1" d="M230.61,330.23c-.32,.32-.71,.47-1.2,.47s-.88-.16-1.2-.47c-.31-.31-.47-.71-.47-1.2v-37.8c0-.48,.16-.88,.47-1.2,.31-.32,.71-.47,1.2-.47s.88,.16,1.2,.47,.47,.71,.47,1.2v37.8c0,.48-.16,.88-.47,1.2Z"/>
    <path class="cls-1" d="M280.36,302.27c.31,.32,.47,.71,.47,1.2v24.52c0,2.93-.58,5.43-1.72,7.5-1.15,2.08-2.74,3.65-4.78,4.73-2.04,1.07-4.34,1.61-6.89,1.61-1.56,0-3.01-.17-4.36-.5-1.35-.33-2.47-.78-3.36-1.33-.78-.48-1.17-1.02-1.17-1.61,0-.07,.04-.26,.11-.56,.11-.37,.3-.65,.56-.83,.26-.19,.54-.28,.83-.28,.22,0,.44,.06,.67,.17,2.37,1.3,4.63,1.95,6.78,1.95,3.08,0,5.51-.96,7.31-2.89,1.8-1.93,2.7-4.56,2.7-7.89v-1.95c-.93,1.56-2.26,2.81-4,3.75-1.74,.94-3.63,1.42-5.67,1.42-3.22,0-5.67-.96-7.34-2.89-1.67-1.93-2.5-4.54-2.5-7.84v-17.07c0-.48,.16-.88,.47-1.2s.71-.47,1.2-.47,.88,.16,1.2,.47c.31,.32,.47,.71,.47,1.2v16.56c0,2.67,.58,4.69,1.75,6.06,1.17,1.37,2.99,2.06,5.48,2.06,1.52,0,2.97-.38,4.36-1.14,1.39-.76,2.5-1.76,3.34-3,.83-1.24,1.25-2.57,1.25-3.98v-16.56c0-.48,.16-.88,.47-1.2s.71-.47,1.2-.47,.88,.16,1.2,.47Z"/>
    <path class="cls-1" d="M329.17,304.66c1.61,2.02,2.42,4.7,2.42,8.03v16.34c0,.48-.17,.88-.5,1.2-.33,.32-.72,.47-1.17,.47-.48,0-.88-.16-1.2-.47-.31-.31-.47-.71-.47-1.2v-16.18c0-2.41-.6-4.36-1.81-5.86-1.2-1.5-3.07-2.25-5.59-2.25-1.59,0-3.1,.37-4.53,1.11-1.43,.74-2.58,1.73-3.47,2.97-.89,1.24-1.33,2.59-1.33,4.03v16.18c0,.48-.16,.88-.47,1.2-.31,.32-.71,.47-1.2,.47s-.88-.16-1.2-.47c-.32-.31-.47-.71-.47-1.2v-24.9c0-.48,.16-.88,.47-1.2s.71-.47,1.2-.47,.88,.16,1.2,.47c.31,.32,.47,.71,.47,1.2v3.06c1-1.59,2.44-2.92,4.31-3.97,1.87-1.06,3.79-1.58,5.75-1.58,3.45,0,5.98,1.01,7.59,3.03Z"/>
    <path class="cls-1" d="M412.91,303.52c2,1.26,3.57,3.01,4.7,5.25,1.13,2.24,1.69,4.77,1.69,7.59s-.57,5.31-1.69,7.59c-1.13,2.28-2.69,4.07-4.67,5.36-1.98,1.3-4.2,1.95-6.64,1.95-2.11,0-4.07-.53-5.86-1.58-1.8-1.06-3.25-2.45-4.36-4.2v3.67c0,.48-.16,.89-.47,1.22-.32,.33-.71,.5-1.2,.5s-.88-.17-1.2-.5c-.32-.33-.47-.74-.47-1.22v-37.86c0-.48,.16-.88,.47-1.2s.71-.47,1.2-.47,.88,.16,1.2,.47c.31,.32,.47,.71,.47,1.2v16.4c1-1.81,2.41-3.28,4.22-4.39,1.81-1.11,3.8-1.67,5.95-1.67,2.45,0,4.67,.63,6.67,1.89Zm-1.75,23.07c1.54-1.04,2.74-2.45,3.61-4.25,.87-1.8,1.31-3.79,1.31-5.98s-.44-4.22-1.31-5.98c-.87-1.76-2.08-3.14-3.61-4.14-1.54-1-3.27-1.5-5.2-1.5s-3.73,.49-5.28,1.47c-1.56,.98-2.76,2.36-3.61,4.14-.85,1.78-1.28,3.78-1.28,6s.43,4.23,1.31,6.03c.87,1.8,2.08,3.21,3.61,4.22,1.54,1.02,3.29,1.53,5.25,1.53s3.66-.52,5.2-1.56Z"/>
    <path class="cls-1" d="M468.34,316c-.33,.32-.72,.47-1.17,.47h-21.01c0,2.22,.45,4.22,1.36,5.98,.91,1.76,2.2,3.15,3.89,4.17,1.69,1.02,3.68,1.53,5.98,1.53,1.78,0,3.37-.37,4.78-1.11,1.41-.74,2.54-1.69,3.39-2.83,.41-.33,.8-.5,1.17-.5s.7,.15,1,.44c.3,.3,.44,.63,.44,1,0,.41-.19,.8-.56,1.17-1.19,1.44-2.68,2.63-4.47,3.56-1.8,.93-3.7,1.39-5.7,1.39-2.85,0-5.37-.61-7.56-1.83-2.19-1.22-3.89-2.94-5.12-5.14-1.22-2.2-1.83-4.75-1.83-7.64,0-3.04,.6-5.7,1.81-7.98,1.2-2.28,2.81-4.02,4.81-5.23,2-1.2,4.13-1.81,6.39-1.81s4.31,.52,6.25,1.56,3.53,2.56,4.75,4.56c1.22,2,1.85,4.37,1.89,7.12,0,.44-.17,.82-.5,1.14Zm-18.37-8.92c-1.83,1.48-3.01,3.61-3.53,6.39h18.96v-.44c-.19-1.67-.74-3.12-1.67-4.36-.93-1.24-2.08-2.19-3.47-2.84-1.39-.65-2.83-.97-4.31-.97-2.15,0-4.14,.74-5.98,2.22Z"/>
    <path class="cls-1" d="M511.5,302.21c1.5,.39,2.7,.92,3.61,1.58,.91,.67,1.36,1.39,1.36,2.17,0,.41-.14,.78-.42,1.11-.28,.33-.62,.5-1.03,.5-.37,0-.68-.07-.92-.22-.24-.15-.51-.37-.81-.67-.48-.48-.95-.83-1.39-1.06-.56-.26-1.29-.47-2.2-.64-.91-.17-1.88-.25-2.92-.25-2.04,0-3.9,.52-5.59,1.56-1.69,1.04-3.01,2.45-3.98,4.22-.96,1.78-1.45,3.74-1.45,5.89s.46,4.22,1.39,6c.93,1.78,2.21,3.18,3.86,4.2,1.65,1.02,3.53,1.53,5.64,1.53,1.34,0,2.4-.11,3.2-.33,.8-.22,1.58-.54,2.36-.95,.26-.15,.7-.48,1.33-1,.3-.26,.56-.45,.78-.58,.22-.13,.46-.19,.72-.19,.44,0,.8,.14,1.06,.42s.39,.64,.39,1.08c0,.63-.44,1.31-1.33,2.03s-2.11,1.34-3.67,1.86c-1.56,.52-3.28,.78-5.17,.78-2.71,0-5.12-.64-7.23-1.92s-3.75-3.05-4.92-5.31c-1.17-2.26-1.75-4.8-1.75-7.62s.59-5.18,1.78-7.42c1.19-2.24,2.85-4.03,5-5.36,2.15-1.33,4.61-2,7.39-2,1.74,0,3.36,.19,4.86,.58Z"/>
    <path class="cls-1" d="M564.56,329.04c0,.48-.19,.88-.58,1.2-.39,.32-.75,.47-1.08,.47-.48,0-.89-.2-1.22-.61l-12.29-13.01-4.17,3.56v8.39c0,.48-.16,.88-.47,1.2s-.71,.47-1.2,.47-.88-.16-1.2-.47c-.32-.31-.47-.71-.47-1.2v-37.8c0-.48,.16-.88,.47-1.2,.31-.32,.71-.47,1.2-.47s.88,.16,1.2,.47,.47,.71,.47,1.2v25.35l16.07-13.84c.33-.37,.72-.56,1.17-.56,.41,0,.78,.18,1.11,.53,.33,.35,.5,.73,.5,1.14,0,.44-.2,.87-.61,1.28l-11.45,9.73,12.06,12.9c.33,.37,.5,.8,.5,1.28Z"/>
  </g>
</svg>